<svg xmlns="http://www.w3.org/2000/svg" xmlns:xlink="http://www.w3.org/1999/xlink" viewBox="0,0,255.9996,255.9996" width="50px" height="50px"><g fill="#339af0" fill-rule="nonzero" stroke="none" stroke-width="1" stroke-linecap="butt" stroke-linejoin="miter" stroke-miterlimit="10" stroke-dasharray="" stroke-dashoffset="0" font-family="none" font-weight="none" font-size="none" text-anchor="none" style="mix-blend-mode: normal"><g transform="scale(5.12,5.12)"><path d="M27.5,36c1.82031,0 3.5,1.67969 3.5,3.5c0,1.82031 -1.67969,3.5 -3.5,3.5c-1.82031,0 -3.5,-1.67969 -3.5,-3.5c0,-1.82031 1.67969,-3.5 3.5,-3.5zM12.5,36c1.82031,0 3.5,1.67969 3.5,3.5c0,1.82031 -1.67969,3.5 -3.5,3.5c-1.82031,0 -3.5,-1.67969 -3.5,-3.5c0,-1.82031 1.67969,-3.5 3.5,-3.5zM2,10c5.07813,4.79297 11.01953,6.80469 21.85156,6.80469c10.82813,0 24.14844,-0.57422 24.14844,2.875c0,1.72266 -1.82031,3.35156 -5.07812,6.22656c-3.16406,2.875 -9.29687,8.05078 -9.29687,8.05078c0,-1.4375 8.72266,-8.91016 8.72266,-11.21094c0,-3.06641 -12.69531,-2.64844 -18.34766,-2.74609c-9.67969,-0.19141 -17.49609,-1.47266 -22,-10z"></path></g></g></svg>